<svg width="173" height="52" viewBox="0 0 173 52" fill="none" xmlns="http://www.w3.org/2000/svg">
<g filter="url(#filter0_d_330:31)">
<path d="M23.2024 19.8401C23.1823 19.7799 23.1623 19.5927 23.1623 19.4188C23.1623 19.0377 23.0954 18.9574 22.4936 18.71C21.8115 18.4292 21.8048 18.4292 21.4705 18.7368C21.31 18.8906 21.1361 19.0109 21.0826 19.0109C20.9623 19.0109 20.1532 18.2018 20.1532 18.0814C20.1532 18.0346 20.2735 17.8608 20.4206 17.7003C20.5678 17.5398 20.6881 17.3459 20.6881 17.2656C20.6881 17.0583 20.3671 16.2626 20.22 16.1088C20.1398 16.0219 19.9659 15.9751 19.6583 15.955L19.2103 15.9149L19.2304 15.2395L19.2504 14.5641L19.6918 14.5307C19.9325 14.5106 20.1799 14.4571 20.2334 14.4103C20.2869 14.3635 20.434 14.096 20.5477 13.8219C20.7951 13.2334 20.775 13.0997 20.3805 12.7185C20.2535 12.5982 20.1532 12.4644 20.1532 12.4243C20.1532 12.3842 20.3605 12.1434 20.6212 11.8893L21.0826 11.4279L21.417 11.7422C21.6109 11.9228 21.8182 12.0565 21.8984 12.0565C22.0924 12.0565 22.8948 11.7422 23.0419 11.6018C23.1288 11.5282 23.1623 11.4012 23.1623 11.1404C23.1623 10.5586 23.2024 10.5185 23.8644 10.5185C24.6267 10.5185 24.6334 10.5252 24.6334 10.9866C24.6334 11.2006 24.6535 11.4279 24.6735 11.4881C24.727 11.6286 25.6565 12.0565 25.8972 12.0565C26.0176 12.0565 26.158 11.9763 26.3118 11.8158C26.7063 11.4012 26.7264 11.4012 27.1811 11.8358C27.7696 12.3909 27.7696 12.3975 27.4085 12.7854C27.2279 12.9793 27.1076 13.1665 27.1076 13.2669C27.1076 13.4942 27.5088 14.3836 27.6358 14.4371C27.696 14.4638 27.9367 14.5039 28.1775 14.524L28.6121 14.5641V15.2328V15.9015L28.2109 15.9416C27.9902 15.9617 27.7495 16.0085 27.676 16.0486C27.589 16.0954 27.4486 16.3495 27.3149 16.6906C27.0674 17.3325 27.0741 17.3793 27.4954 17.8273L27.7361 18.0747L27.2747 18.5428C27.0206 18.8036 26.7799 19.0109 26.7398 19.0109C26.6997 19.0109 26.5659 18.9039 26.4389 18.7769C26.1045 18.4358 25.9507 18.4292 25.2887 18.7301C24.9744 18.8772 24.7003 19.0444 24.6802 19.1112C24.6535 19.1714 24.6334 19.3653 24.6334 19.5392C24.6334 19.713 24.6133 19.8802 24.5866 19.9003C24.5665 19.927 24.2522 19.9471 23.8912 19.9471C23.3629 19.9471 23.2358 19.927 23.2024 19.8401Z" fill="url(#paint0_linear_330:31)" shape-rendering="crispEdges"/>
</g>
<g filter="url(#filter1_d_330:31)">
<path d="M28.1215 27.219C28.1015 27.1589 28.0814 26.9716 28.0814 26.7978C28.0814 26.4166 28.0145 26.3364 27.4127 26.0889C26.7306 25.8081 26.724 25.8081 26.3896 26.1157C26.2291 26.2695 26.0553 26.3899 26.0018 26.3899C25.8814 26.3899 25.0723 25.5807 25.0723 25.4604C25.0723 25.4136 25.1927 25.2397 25.3398 25.0792C25.4869 24.9187 25.6072 24.7248 25.6072 24.6446C25.6072 24.4373 25.2863 23.6415 25.1392 23.4877C25.0589 23.4008 24.8851 23.354 24.5775 23.3339L24.1294 23.2938L24.1495 22.6184L24.1696 21.9431L24.6109 21.9096C24.8516 21.8896 25.099 21.8361 25.1525 21.7893C25.206 21.7424 25.3531 21.475 25.4668 21.2008C25.7142 20.6124 25.6942 20.4786 25.2996 20.0975C25.1726 19.9771 25.0723 19.8434 25.0723 19.8032C25.0723 19.7631 25.2796 19.5224 25.5404 19.2683L26.0018 18.8069L26.3361 19.1212C26.53 19.3017 26.7373 19.4355 26.8176 19.4355C27.0115 19.4355 27.8139 19.1212 27.961 18.9807C28.048 18.9072 28.0814 18.7801 28.0814 18.5193C28.0814 17.9376 28.1215 17.8975 28.7835 17.8975C29.5458 17.8975 29.5525 17.9041 29.5525 18.3655C29.5525 18.5795 29.5726 18.8069 29.5927 18.8671C29.6461 19.0075 30.5756 19.4355 30.8164 19.4355C30.9367 19.4355 31.0771 19.3552 31.2309 19.1947C31.6255 18.7801 31.6455 18.7801 32.1002 19.2148C32.6887 19.7698 32.6887 19.7765 32.3276 20.1643C32.1471 20.3582 32.0267 20.5455 32.0267 20.6458C32.0267 20.8731 32.4279 21.7625 32.555 21.816C32.6151 21.8427 32.8559 21.8829 33.0966 21.9029L33.5312 21.9431V22.6117V23.2804L33.13 23.3206C32.9094 23.3406 32.6686 23.3874 32.5951 23.4275C32.5082 23.4744 32.3677 23.7285 32.234 24.0695C31.9866 24.7114 31.9933 24.7582 32.4145 25.2063L32.6553 25.4537L32.1939 25.9218C31.9398 26.1826 31.699 26.3899 31.6589 26.3899C31.6188 26.3899 31.4851 26.2829 31.358 26.1558C31.0237 25.8148 30.8699 25.8081 30.2078 26.109C29.8936 26.2561 29.6194 26.4233 29.5993 26.4902C29.5726 26.5503 29.5525 26.7443 29.5525 26.9181C29.5525 27.092 29.5325 27.2592 29.5057 27.2792C29.4857 27.306 29.1714 27.326 28.8103 27.326C28.282 27.326 28.155 27.306 28.1215 27.219Z" fill="url(#paint1_linear_330:31)" shape-rendering="crispEdges"/>
</g>
<g filter="url(#filter2_d_330:31)">
<path d="M18.2831 27.219C18.2631 27.1589 18.243 26.9716 18.243 26.7978C18.243 26.4166 18.1762 26.3364 17.5743 26.0889C16.8923 25.8081 16.8856 25.8081 16.5512 26.1157C16.3907 26.2695 16.2169 26.3899 16.1634 26.3899C16.043 26.3899 15.2339 25.5807 15.2339 25.4604C15.2339 25.4136 15.3543 25.2397 15.5014 25.0792C15.6485 24.9187 15.7689 24.7248 15.7689 24.6446C15.7689 24.4373 15.4479 23.6415 15.3008 23.4877C15.2205 23.4008 15.0467 23.354 14.7391 23.3339L14.2911 23.2938L14.3111 22.6184L14.3312 21.9431L14.7725 21.9096C15.0132 21.8896 15.2607 21.8361 15.3142 21.7893C15.3677 21.7424 15.5148 21.475 15.6284 21.2008C15.8759 20.6124 15.8558 20.4786 15.4613 20.0975C15.3342 19.9771 15.2339 19.8434 15.2339 19.8032C15.2339 19.7631 15.4412 19.5224 15.702 19.2683L16.1634 18.8069L16.4977 19.1212C16.6917 19.3017 16.899 19.4355 16.9792 19.4355C17.1731 19.4355 17.9756 19.1212 18.1227 18.9807C18.2096 18.9072 18.243 18.7801 18.243 18.5193C18.243 17.9376 18.2831 17.8975 18.9452 17.8975C19.7075 17.8975 19.7142 17.9041 19.7142 18.3655C19.7142 18.5795 19.7342 18.8069 19.7543 18.8671C19.8078 19.0075 20.7373 19.4355 20.978 19.4355C21.0983 19.4355 21.2388 19.3552 21.3926 19.1947C21.7871 18.7801 21.8072 18.7801 22.2619 19.2148C22.8503 19.7698 22.8503 19.7765 22.4892 20.1643C22.3087 20.3582 22.1883 20.5455 22.1883 20.6458C22.1883 20.8731 22.5895 21.7625 22.7166 21.816C22.7768 21.8427 23.0175 21.8829 23.2582 21.9029L23.6929 21.9431V22.6117V23.2804L23.2917 23.3206C23.071 23.3406 22.8303 23.3874 22.7567 23.4275C22.6698 23.4744 22.5293 23.7285 22.3956 24.0695C22.1482 24.7114 22.1549 24.7582 22.5762 25.2063L22.8169 25.4537L22.3555 25.9218C22.1014 26.1826 21.8607 26.3899 21.8205 26.3899C21.7804 26.3899 21.6467 26.2829 21.5196 26.1558C21.1853 25.8148 21.0315 25.8081 20.3695 26.109C20.0552 26.2561 19.781 26.4233 19.761 26.4902C19.7342 26.5503 19.7142 26.7443 19.7142 26.9181C19.7142 27.092 19.6941 27.2592 19.6673 27.2792C19.6473 27.306 19.333 27.326 18.9719 27.326C18.4436 27.326 18.3166 27.306 18.2831 27.219Z" fill="url(#paint2_linear_330:31)" shape-rendering="crispEdges"/>
</g>
<path d="M45.0672 42.6482H49.6482V47.2293H45.0672V42.6482Z" fill="white"/>
<path d="M26.743 42.6482H31.3241V47.2293H26.743V42.6482Z" fill="white"/>
<path d="M31.324 47.2292H35.9051V51.8103H31.324V47.2292Z" fill="white"/>
<path d="M31.324 38.0672H35.9051V42.6482H31.324V38.0672Z" fill="white"/>
<path d="M35.9051 42.6482H40.4861V47.2293H35.9051V42.6482Z" fill="white"/>
<path d="M40.4861 38.0672H45.0672V42.6482H40.4861V38.0672Z" fill="white"/>
<path d="M49.6482 28.9052H54.2292V33.4862H49.6482V28.9052Z" fill="white"/>
<path d="M54.2292 24.3241H58.8103V28.9052H54.2292V24.3241Z" fill="white"/>
<path d="M49.6482 19.7431H54.2292V24.3241H49.6482V19.7431Z" fill="white"/>
<path d="M54.2292 15.1621H58.8103V19.7431H54.2292V15.1621Z" fill="white"/>
<path d="M45.0672 15.1621H49.6482V19.7431H45.0672V15.1621Z" fill="white"/>
<path d="M40.4861 19.7431H45.0672V24.3241H40.4861V19.7431Z" fill="white"/>
<path d="M35.9051 15.1621H40.4861V19.7431H35.9051V15.1621Z" fill="white"/>
<path d="M31.324 10.581H35.9051V15.1621H31.324V10.581Z" fill="white"/>
<path d="M26.743 6H31.3241V10.581H26.743V6Z" fill="white"/>
<path d="M35.9051 6H40.4861V10.581H35.9051V6Z" fill="white"/>
<path d="M45.0672 6H49.6482V10.581H45.0672V6Z" fill="white"/>
<path d="M40.4861 10.581H45.0672V15.1621H40.4861V10.581Z" fill="white"/>
<path d="M49.6482 10.581H54.2292V15.1621H49.6482V10.581Z" fill="white"/>
<path d="M45.0672 24.3241H49.6482V28.9052H45.0672V24.3241Z" fill="white"/>
<path d="M35.9051 24.3241H40.4861V28.9052H35.9051V24.3241Z" fill="white"/>
<path d="M40.4861 28.9052H45.0672V33.4862H40.4861V28.9052Z" fill="white"/>
<path d="M31.324 28.9052H35.9051V33.4862H31.324V28.9052Z" fill="white"/>
<path d="M22.162 28.9052H26.7431V33.4862H22.162V28.9052Z" fill="white"/>
<path d="M13 28.9052H17.581V33.4862H13V28.9052Z" fill="white"/>
<path d="M26.743 33.4862H31.3241V38.0672H26.743V33.4862Z" fill="white"/>
<path d="M45.0672 33.4862H49.6482V38.0672H45.0672V33.4862Z" fill="white"/>
<path d="M35.9051 33.4862H40.4861V38.0672H35.9051V33.4862Z" fill="white"/>
<path d="M17.581 33.4862H22.162V38.0672H17.581V33.4862Z" fill="white"/>
<path d="M22.162 38.0672H26.7431V42.6482H22.162V38.0672Z" fill="white"/>
<path d="M49.6482 38.0672H54.2292V42.6482H49.6482V38.0672Z" fill="white"/>
<path d="M54.2292 33.4862H58.8103V38.0672H54.2292V33.4862Z" fill="white"/>
<path d="M81.0365 32.2851C81.1447 33.6639 81.5772 34.3668 82.4694 34.8264C82.929 35.0697 83.2264 34.9075 83.3886 34.5831C85.0378 30.9333 88.3632 24.5799 89.8772 22.0926C90.7153 20.7409 90.8775 19.7946 90.8775 19.1458C90.8775 18.7673 90.7964 18.4158 90.6342 18.0914C90.3368 17.5777 90.0123 17.4425 89.6068 18.0103C87.8225 20.7949 85.2 25.5262 83.3616 29.3923C83.5508 26.2832 83.7942 23.4715 84.1727 21.2816C84.2538 20.7949 84.3078 20.3624 84.3078 19.9839C84.3078 19.0106 83.9293 18.4428 83.1183 17.8481C82.7127 17.5236 82.3883 17.5236 82.0369 18.1184C79.9822 21.5249 76.5486 27.9594 75.1428 31.5821C74.9265 32.1499 74.7913 32.7987 74.7913 33.2043C74.7913 33.8261 75.0346 34.3668 75.305 34.7183C75.6835 35.1238 76.089 35.0968 76.2783 34.556C77.4678 31.2307 79.3874 27.4998 81.3069 24.2014C81.0636 26.4994 80.9554 28.7434 80.9554 30.3115C80.9554 30.9603 80.9825 31.501 81.0365 32.2851Z" fill="white"/>
<path d="M86.6929 33.3124C86.6929 33.9613 86.9362 34.529 87.3147 34.7723C87.6932 35.0157 88.0717 34.9345 88.2339 34.5831C89.1802 32.5554 89.9642 30.8792 90.9645 28.9326C92.4515 28.5541 94.371 28.3108 95.6146 28.2027C96.2094 28.1486 96.2635 27.9053 96.1553 27.5268C95.912 26.6617 95.1821 26.0939 93.641 26.2021C93.2355 26.2291 92.857 26.2561 92.3433 26.3372C93.614 24.0122 94.6684 22.1467 95.5606 20.6598C98.156 20.2002 99.4807 19.9028 100.86 19.9298C101.427 19.9298 101.562 19.6324 101.427 19.335C101.049 18.4158 100.292 17.8751 98.9941 17.8751C98.3452 17.8751 97.453 17.9832 96.5068 18.1455C95.2091 18.3617 94.0466 18.524 92.4785 18.524C91.9648 18.524 91.8026 18.6862 91.8837 19.0376C91.9919 19.5243 92.2893 20.065 92.9111 20.4164C90.5319 24.2285 87.8013 29.3652 87.0173 31.6632C86.801 32.3391 86.6929 32.9069 86.6929 33.3124Z" fill="white"/>
<path d="M98.2988 33.1232C98.2988 33.7991 98.461 34.2316 98.8665 34.6101C99.245 34.9886 99.5694 34.9616 99.7857 34.4749C101.354 30.9333 103.3 27.3375 104.706 24.7962C105.869 22.7685 106.653 21.2005 106.626 20.2272C108.086 19.9839 109.654 19.7406 110.816 19.8757C111.438 19.9298 111.546 19.6054 111.411 19.2809C111.005 18.1455 109.87 17.821 108.626 17.821C107.058 17.821 102.733 18.551 100.38 18.551C100.002 18.551 99.7857 18.7132 99.8668 19.0647C100.164 20.1191 101.327 20.7409 103.084 20.7409C103.463 20.7409 103.841 20.6868 104.247 20.6327C101.867 24.3096 99.1369 29.7978 98.461 32.0417C98.3528 32.3932 98.2988 32.7987 98.2988 33.1232Z" fill="white"/>
<path d="M110.476 23.4174C110.124 22.9848 109.664 23.0119 109.421 23.4715C109.151 23.9311 108.853 24.4447 107.988 25.9858C107.231 26.0398 106.285 26.0939 105.636 26.0398C105.041 25.9858 104.933 26.2291 105.014 26.6076C105.204 27.4187 105.717 28.0405 106.961 28.1486L106.88 28.3919C106.745 28.7704 106.636 29.203 106.636 29.4734C106.636 30.1492 106.853 30.4737 107.258 30.7711C107.745 31.1225 108.042 30.8792 108.205 30.5277C108.556 29.6626 109.016 28.8245 109.529 27.9594C110.016 27.9053 110.394 27.8783 110.935 27.8783C111.233 27.8783 111.557 27.9053 111.854 27.9323C112.53 27.9864 112.557 27.7431 112.476 27.4187C112.314 26.6617 111.827 26.0128 110.665 25.8776C110.881 25.418 110.935 25.0125 110.935 24.634C110.935 24.1474 110.773 23.7418 110.476 23.4174Z" fill="white"/>
<path d="M116.969 31.501C119.105 33.9613 121.727 35.0697 123.701 35.0697C125.323 35.0697 126.648 34.502 127.351 33.6909C128.054 32.8528 128.405 32.1499 128.405 31.5281C128.405 31.0144 128.108 30.5277 127.594 30.1492C126.54 29.3923 122.836 27.8512 122.917 26.0669C123.052 22.9578 128.973 18.9836 129.973 19.7135C130.352 19.9839 129.622 21.1734 128.946 22.1738C128.054 23.3633 127.702 24.3907 127.702 24.9855C127.702 25.6073 127.972 26.0669 128.351 26.4454C128.865 26.9861 129.162 26.7698 129.405 26.3372C129.784 25.6884 130.568 24.2825 131.217 23.4174C131.622 22.8226 132.298 21.7412 132.028 20.6327C131.838 19.9028 131.352 19.0106 130.595 18.3077C130.135 17.9292 129.595 17.7399 128.946 17.7399C128.324 17.7399 127.756 17.821 126.864 18.1995C124.431 19.2269 120.213 22.4441 120.213 26.1209C120.213 28.8786 123.971 30.3385 125.918 31.8525C126.215 32.0958 126.35 32.5825 125.945 32.988C125.647 33.2854 125.107 33.4206 124.512 33.4206C122.944 33.4206 121.159 32.0688 120.105 31.2036C119.537 30.744 118.78 30.5277 117.996 30.5277C117.672 30.5277 117.374 30.5548 117.158 30.6089C116.78 30.744 116.59 31.0414 116.969 31.501Z" fill="white"/>
<path d="M130.348 31.8795C130.348 33.745 131.592 34.9075 133.024 34.9075C135.295 34.9075 137.107 32.5825 137.485 31.7714C137.783 31.1496 137.891 30.744 137.756 30.1763C137.566 29.4463 136.945 29.5004 136.647 30.1492C135.701 32.1769 134.295 33.8802 133.241 33.8802C132.781 33.8802 132.511 33.3124 132.511 32.5013C132.511 31.9066 132.673 31.2036 132.997 30.4737C133.944 28.419 135.485 25.7425 136.512 23.9851C137.107 23.904 137.81 23.85 138.296 23.904C138.945 23.9851 139.135 23.6607 138.864 23.1741C138.675 22.8496 138.215 22.4171 137.377 22.3089C137.702 21.5519 137.81 20.9301 137.81 20.4435C137.81 20.1191 137.702 19.6594 137.512 19.335C137.215 18.8213 136.891 18.7943 136.485 19.3891C135.863 20.2813 135.295 21.1734 134.457 22.6334C133.863 22.6874 133.133 22.7145 132.511 22.6874C131.889 22.6604 131.619 22.9308 131.997 23.4985C132.213 23.8229 132.7 24.1203 133.538 24.2285C132.457 26.175 131.429 28.3108 130.889 29.6356C130.51 30.5277 130.348 31.2847 130.348 31.8795Z" fill="white"/>
<path d="M147.762 32.0688C148.167 31.2847 148.059 30.5007 147.951 30.2574C147.735 29.7437 147.275 29.8248 147.005 30.2844C146.031 31.9877 144.653 33.8531 143.76 33.8531C143.409 33.8531 143.247 33.5828 143.247 33.0961C143.247 32.0417 144.301 30.2033 145.085 28.9326C146.031 27.3646 146.599 26.175 146.599 25.2558C146.599 24.661 146.464 24.2285 146.194 23.85C145.869 23.3904 145.437 23.4985 145.058 24.0122C144.085 25.2558 143.382 27.0942 141.787 29.6896C140.408 31.8525 138.975 33.6909 138.272 33.6909C137.677 33.6909 137.758 32.6906 138.245 31.6092C139.191 29.5274 141.165 26.3913 141.165 25.2828C141.165 24.8773 141.057 24.4177 140.759 24.0392C140.435 23.6337 139.948 23.5796 139.597 24.0392C137.921 26.3913 136.542 29.0949 135.947 30.7981C135.704 31.447 135.596 32.0688 135.596 32.6636C135.596 33.8261 136.136 34.8534 137.515 34.8534C138.894 34.8534 140.111 34.0153 141.03 32.988C141.138 34.2046 141.949 34.9886 143.544 34.9886C145.22 34.9886 146.978 33.6098 147.762 32.0688Z" fill="white"/>
<path d="M159.827 22.1467C160.53 20.876 160.882 19.8217 160.882 19.0917C160.882 18.7132 160.774 18.3617 160.639 18.0373C160.368 17.3885 159.99 17.3344 159.503 18.0103C158.611 19.2809 156.854 22.336 155.502 24.8773C155.286 24.1744 154.691 23.7959 153.772 23.7959C152.366 23.7959 150.122 25.0666 148.013 28.1216C147.067 29.5004 146.58 30.9874 146.58 32.1228C146.58 33.7179 147.445 34.8805 149.013 34.8805C150.203 34.8805 151.257 34.1775 152.095 33.3124C152.312 34.502 153.204 34.9616 154.529 34.9616C156.097 34.9616 157.773 33.5557 158.503 32.0958C158.854 31.3388 158.746 30.5818 158.611 30.3385C158.368 29.8519 158.016 29.8248 157.746 30.3385C156.827 32.1228 155.502 33.9072 154.556 33.9072C154.312 33.9072 154.204 33.7179 154.204 33.3124C154.204 32.8798 154.366 32.2851 154.691 31.5821C155.961 28.9056 158.259 25.1206 159.827 22.1467ZM152.771 29.8248C151.555 32.1769 150.257 33.6909 149.392 33.6909C149.094 33.6909 148.986 33.3394 148.986 32.8528C148.986 31.9606 149.419 30.6089 150.23 29.3382C151.663 27.0672 153.447 25.418 154.204 25.4451C154.718 25.4721 154.231 27.0402 152.771 29.8248Z" fill="white"/>
<path d="M162.027 22.5793C162.027 23.4174 162.757 24.2285 163.622 24.2285C164.298 24.2285 164.704 23.6066 164.704 22.8767C164.704 22.0926 163.974 21.1194 163.217 21.1194C162.595 21.1194 162.027 21.8223 162.027 22.5793ZM164.028 32.0688C164.379 31.3659 164.406 30.69 164.163 30.2304C163.92 29.7437 163.568 29.6896 163.352 30.1763C162.514 32.0147 161.108 33.8261 160.027 33.8261C159.729 33.8261 159.621 33.5828 159.621 33.1502C159.621 32.7176 159.756 32.1499 160 31.5281C160.459 30.4466 161.703 28.419 162.217 27.2564C162.919 25.9047 162.703 24.7421 162.19 24.2014C161.838 23.7959 161.514 23.85 161.108 24.3907C160.108 25.7965 158.377 28.9326 157.702 30.8251C157.485 31.5281 157.377 32.0958 157.377 32.6095C157.377 33.9613 158.107 34.9075 159.756 34.9075C161.351 34.9075 163.217 33.772 164.028 32.0688Z" fill="white"/>
<path d="M172.657 28.7704C172.873 28.5001 172.819 28.2568 172.116 28.2568C172.36 25.9587 171.603 25.7695 170.846 24.8773C170.332 24.1744 169.845 23.877 169.061 23.877C167.277 23.877 165.574 25.2288 164.357 27.3916C163.654 28.6623 163.222 29.987 163.222 31.1766C163.222 32.0417 163.465 32.8528 163.979 33.5287C164.736 34.529 165.736 34.9075 166.628 34.9075C167.034 34.9075 167.358 34.8264 167.601 34.7453C169.656 34.0424 171.386 31.3929 171.954 29.1489C172.251 29.0949 172.468 28.9867 172.657 28.7704ZM170.089 27.716C169.791 27.3646 169.656 26.6617 169.656 26.175C169.656 25.7424 169.899 25.5262 170.062 25.5262C170.251 25.5262 170.467 25.6884 170.467 26.0939C170.467 26.4454 170.359 27.0942 170.089 27.716ZM165.33 32.3932C165.33 31.3929 165.763 29.8789 166.466 28.5812C166.925 27.7701 167.439 27.0942 168.007 26.5535C168.223 27.4998 168.791 28.2027 169.656 28.7434C169.494 29.3111 169.169 29.987 168.764 30.69C167.763 32.5284 166.682 33.5287 165.979 33.5287C165.574 33.5287 165.33 33.2043 165.33 32.3932Z" fill="white"/>
<defs>
<filter id="filter0_d_330:31" x="5.46724" y="0.44026" width="36.888" height="36.9147" filterUnits="userSpaceOnUse" color-interpolation-filters="sRGB">
<feFlood flood-opacity="0" result="BackgroundImageFix"/>
<feColorMatrix in="SourceAlpha" type="matrix" values="0 0 0 0 0 0 0 0 0 0 0 0 0 0 0 0 0 0 127 0" result="hardAlpha"/>
<feOffset dy="3.66482"/>
<feGaussianBlur stdDeviation="6.87154"/>
<feComposite in2="hardAlpha" operator="out"/>
<feColorMatrix type="matrix" values="0 0 0 0 0.909804 0 0 0 0 0.207843 0 0 0 0 0.584314 0 0 0 1 0"/>
<feBlend mode="normal" in2="BackgroundImageFix" result="effect1_dropShadow_330:31"/>
<feBlend mode="normal" in="SourceGraphic" in2="effect1_dropShadow_330:31" result="shape"/>
</filter>
<filter id="filter1_d_330:31" x="10.3864" y="7.8192" width="36.888" height="36.9147" filterUnits="userSpaceOnUse" color-interpolation-filters="sRGB">
<feFlood flood-opacity="0" result="BackgroundImageFix"/>
<feColorMatrix in="SourceAlpha" type="matrix" values="0 0 0 0 0 0 0 0 0 0 0 0 0 0 0 0 0 0 127 0" result="hardAlpha"/>
<feOffset dy="3.66482"/>
<feGaussianBlur stdDeviation="6.87154"/>
<feComposite in2="hardAlpha" operator="out"/>
<feColorMatrix type="matrix" values="0 0 0 0 0.909804 0 0 0 0 0.207843 0 0 0 0 0.584314 0 0 0 0.25 0"/>
<feBlend mode="normal" in2="BackgroundImageFix" result="effect1_dropShadow_330:31"/>
<feBlend mode="normal" in="SourceGraphic" in2="effect1_dropShadow_330:31" result="shape"/>
</filter>
<filter id="filter2_d_330:31" x="0.54799" y="7.8192" width="36.888" height="36.9147" filterUnits="userSpaceOnUse" color-interpolation-filters="sRGB">
<feFlood flood-opacity="0" result="BackgroundImageFix"/>
<feColorMatrix in="SourceAlpha" type="matrix" values="0 0 0 0 0 0 0 0 0 0 0 0 0 0 0 0 0 0 127 0" result="hardAlpha"/>
<feOffset dy="3.66482"/>
<feGaussianBlur stdDeviation="6.87154"/>
<feComposite in2="hardAlpha" operator="out"/>
<feColorMatrix type="matrix" values="0 0 0 0 0.909804 0 0 0 0 0.207843 0 0 0 0 0.584314 0 0 0 0.25 0"/>
<feBlend mode="normal" in2="BackgroundImageFix" result="effect1_dropShadow_330:31"/>
<feBlend mode="normal" in="SourceGraphic" in2="effect1_dropShadow_330:31" result="shape"/>
</filter>
<linearGradient id="paint0_linear_330:31" x1="23.9112" y1="10.5185" x2="23.9112" y2="19.9471" gradientUnits="userSpaceOnUse">
<stop stop-color="#201D52"/>
<stop offset="0.260417" stop-color="#2E2F77" stop-opacity="0.62"/>
<stop offset="0.651042" stop-color="#6E3593" stop-opacity="0.9"/>
<stop offset="0.885417" stop-color="#E83595"/>
</linearGradient>
<linearGradient id="paint1_linear_330:31" x1="28.8303" y1="17.8975" x2="28.8303" y2="27.326" gradientUnits="userSpaceOnUse">
<stop stop-color="#201D52"/>
<stop offset="0.260417" stop-color="#2E2F77" stop-opacity="0.62"/>
<stop offset="0.651042" stop-color="#6E3593" stop-opacity="0.9"/>
<stop offset="0.885417" stop-color="#E83595"/>
</linearGradient>
<linearGradient id="paint2_linear_330:31" x1="18.992" y1="17.8975" x2="18.992" y2="27.326" gradientUnits="userSpaceOnUse">
<stop stop-color="#201D52"/>
<stop offset="0.260417" stop-color="#2E2F77" stop-opacity="0.62"/>
<stop offset="0.651042" stop-color="#6E3593" stop-opacity="0.9"/>
<stop offset="0.885417" stop-color="#E83595"/>
</linearGradient>
</defs>
</svg>
