<svg width="17" height="17" viewBox="0 0 17 17" fill="none" xmlns="http://www.w3.org/2000/svg">
<g clip-path="url(#clip0_311:503)">
<path fill-rule="evenodd" clip-rule="evenodd" d="M11.3113 0.808601C10.8743 0.864389 10.5751 1.22667 10.5751 1.6998C10.5751 1.9159 10.5676 1.94188 10.4689 2.06893C10.1375 2.49509 9.94802 3.32148 10.1381 3.51156C10.2608 3.63422 10.5747 3.56155 10.58 3.40925C10.5923 3.06111 10.7063 2.65742 10.8381 2.4963L10.9091 2.40938L11.0639 2.48845C11.6537 2.78958 12.3395 2.35838 12.3395 1.68635C12.3395 1.10571 11.9029 0.732995 11.3113 0.808601ZM7.45452 0.853272C7.28872 0.914135 7.0837 1.06825 6.995 1.19867C6.93228 1.29088 6.90139 1.30872 6.80451 1.30872C5.90151 1.30872 5.78079 2.81081 6.66478 3.04721L6.80238 3.08403V3.64002V4.196L6.70406 4.21566C6.64996 4.22649 6.57399 4.23532 6.5352 4.23532C6.40099 4.23532 6.29888 4.35064 6.29888 4.50221C6.29888 4.63457 6.30879 4.64807 6.62571 4.94844L6.95254 5.25815L6.87827 5.63574C6.72484 6.41552 6.85688 6.51763 7.53491 6.14371L7.89764 5.94368L8.27047 6.14798C8.47554 6.26036 8.64701 6.35526 8.65152 6.35889C8.65603 6.36247 8.64286 6.47381 8.62228 6.60633L8.58482 6.84724H6.42141H4.25796L4.19847 6.92289C4.15835 6.97389 4.12081 7.11978 4.08315 7.37129L4.02732 7.74412L3.40084 8.62247C2.85565 9.38683 2.77436 9.51601 2.77436 9.61812C2.77436 9.76091 2.77331 9.7597 3.33293 10.2611L3.78137 10.6628V12.4684C3.78137 14.1983 3.78386 14.2764 3.84098 14.3335C3.91276 14.4053 3.91679 14.4059 5.02437 14.5257C5.50902 14.5781 5.93736 14.6281 5.97631 14.6368C6.04652 14.6526 6.04713 14.6574 6.04713 15.2186C6.04713 15.7424 6.0518 15.7891 6.11008 15.8474C6.20909 15.9464 11.9272 15.9464 12.0262 15.8474C12.0869 15.7867 12.0892 15.7424 12.0892 14.6421V13.4997L12.2919 12.6989C12.6836 11.1521 12.762 10.5842 12.7642 9.27827L12.7657 8.35787L13.8228 8.35783L14.8798 8.35775L15.0717 8.26188C15.851 7.87245 15.774 6.64975 14.9563 6.42865C14.836 6.39611 14.8022 6.36594 14.6939 6.1945C14.6256 6.08631 14.5174 5.95169 14.4536 5.89538C14.3898 5.83911 14.2682 5.67686 14.1835 5.53492C13.8362 4.95279 13.2772 4.49456 12.617 4.25078L12.4682 4.19584L12.537 4.0976C12.667 3.91203 12.9781 3.6411 13.1865 3.53194L13.3951 3.4227L13.5189 3.56566C14.0873 4.22206 15.144 3.56501 14.8096 2.76316C14.5651 2.17676 13.6745 2.15952 13.4105 2.73605C13.3647 2.83606 13.3236 2.87022 13.1767 2.92992C12.7439 3.10578 12.3059 3.46564 12.0577 3.84907L11.9161 4.06783L11.5227 4.0868C10.4839 4.13695 9.59694 4.62773 9.0762 5.4405L8.92027 5.68387L8.88426 5.47099L8.84825 5.25807L9.17867 4.94336C9.59376 4.54805 9.63456 4.30556 9.2954 4.25018C9.23099 4.23967 9.13935 4.22384 9.09174 4.21497L9.00522 4.19886V3.62217V3.04548L9.1435 2.96444C9.85876 2.54528 9.61261 1.31428 8.81256 1.3094C8.71798 1.30884 8.68592 1.29003 8.62377 1.19867C8.40086 0.870915 7.84983 0.708142 7.45452 0.853272ZM8.05509 1.4039C8.11237 1.43882 8.18318 1.51097 8.21247 1.56422C8.32839 1.77516 8.37306 1.81222 8.51187 1.81238C8.83214 1.81283 9.03668 1.95993 9.03668 2.18985C9.03668 2.51829 8.87778 2.56711 7.80938 2.56711C6.89772 2.56711 6.78437 2.55128 6.66281 2.4068C6.43309 2.13382 6.6728 1.81299 7.1069 1.81238C7.2457 1.81222 7.29037 1.77516 7.4063 1.56422C7.52339 1.35122 7.84028 1.27291 8.05509 1.4039ZM11.699 1.4472C11.9209 1.66911 11.7724 2.03251 11.4598 2.03251C11.2705 2.03251 11.1136 1.87562 11.1136 1.68635C11.1136 1.49707 11.2705 1.34018 11.4598 1.34018C11.5681 1.34018 11.6112 1.35947 11.699 1.4472ZM4.45795 2.62725C3.67676 2.98973 4.00214 4.1266 4.87111 4.07085L5.1026 4.05599L5.19758 4.20402C5.38863 4.50177 5.46423 4.75425 5.53029 5.31539C5.56102 5.57628 5.81781 5.69193 5.98816 5.52158C6.18315 5.32659 5.94465 4.30593 5.58632 3.8019C5.50383 3.68589 5.49082 3.64634 5.51458 3.58382C5.74837 2.96887 5.06163 2.34718 4.45795 2.62725ZM14.2605 2.91364C14.2955 2.94861 14.3235 3.01853 14.3235 3.07098C14.3235 3.12342 14.2955 3.19335 14.2605 3.22831C14.1243 3.36454 13.8829 3.26392 13.8829 3.07098C13.8829 2.94985 13.982 2.85069 14.1032 2.85069C14.1556 2.85069 14.2255 2.87868 14.2605 2.91364ZM8.50031 3.61383L8.4989 4.15665L8.29947 3.74281C8.10017 3.32917 8.04236 3.25981 7.89711 3.25981C7.76081 3.25981 7.67767 3.35954 7.49343 3.7441L7.3108 4.12519L7.30834 3.59808L7.30588 3.07098H7.9038H8.50172L8.50031 3.61383ZM4.9457 3.16539C4.98067 3.20036 5.00866 3.27028 5.00866 3.32273C5.00866 3.37517 4.98067 3.4451 4.9457 3.48006C4.80952 3.61629 4.56808 3.51567 4.56808 3.32273C4.56808 3.20161 4.66725 3.10244 4.78837 3.10244C4.84082 3.10244 4.91074 3.13043 4.9457 3.16539ZM1.78311 3.21051C1.36452 3.30533 1.26385 3.37852 1.26385 3.58813C1.26385 3.82969 1.42264 3.87191 1.87748 3.75139C1.9827 3.72352 2.1926 3.70112 2.35146 3.70084C2.75088 3.70015 2.91301 3.50109 2.71426 3.25542C2.63991 3.1635 2.10462 3.13772 1.78311 3.21051ZM3.33248 3.61383C3.15936 3.74527 3.20927 3.93845 3.47636 4.17075C3.75917 4.4167 4.03312 4.37779 4.03312 4.09164C4.03312 3.79191 3.54045 3.45589 3.33248 3.61383ZM7.9991 4.3792C8.08365 4.58745 8.15362 4.64005 8.37971 4.66539C8.64101 4.69467 8.65108 4.71199 8.48573 4.84749C8.2954 5.00342 8.26842 5.0789 8.31248 5.3319C8.35574 5.58035 8.35957 5.57721 8.15285 5.46326C7.93941 5.3456 7.88394 5.34556 7.65205 5.46261C7.42124 5.5791 7.43293 5.58059 7.46579 5.43901C7.53197 5.15403 7.50817 5.05341 7.33239 4.87541C7.1504 4.69113 7.14339 4.70232 7.46648 4.66063C7.64121 4.63808 7.70683 4.58152 7.80689 4.36711C7.90199 4.16338 7.91178 4.16398 7.9991 4.3792ZM2.78806 4.64098C2.10563 4.95093 2.08295 5.93031 2.75048 6.26294C3.19674 6.48533 3.81673 6.26076 3.97652 5.81881C4.05068 5.61378 4.45131 5.81047 4.80928 6.22769C4.99207 6.4407 5.29187 6.3636 5.29187 6.10359C5.29187 5.78929 4.71172 5.30874 4.20362 5.20216C4.03835 5.16748 4.01841 5.15338 3.92206 5.00277C3.67922 4.62313 3.17881 4.46346 2.78806 4.64098ZM12.0826 4.66229C12.5675 4.76089 13.0125 5.00378 13.3709 5.36558L13.5762 5.57274L13.4136 5.59308C13.3241 5.60424 13.2093 5.63062 13.1585 5.65169C13.0709 5.68794 13.0575 5.6823 12.9047 5.54491C11.8203 4.56992 9.89831 5.21819 9.62606 6.65072L9.58872 6.84724H9.35711H9.12554L9.14781 6.71351C9.37713 5.33726 10.735 4.38822 12.0826 4.66229ZM3.39117 5.22347C3.54295 5.37525 3.54295 5.54998 3.39117 5.7018C3.11054 5.98239 2.67354 5.66148 2.8397 5.29686C2.93202 5.09421 3.22316 5.05546 3.39117 5.22347ZM11.9782 5.65773C12.1316 5.69624 12.4209 5.8427 12.5372 5.9407L12.6233 6.01332L12.4962 6.21142L12.3691 6.40948L12.2684 6.32453C11.7473 5.88447 10.8915 6.08796 10.6547 6.70824L10.6016 6.84724H10.3673H10.1331L10.1534 6.74497C10.3048 5.98291 11.1849 5.45858 11.9782 5.65773ZM13.8725 6.17448C14.0457 6.23607 14.238 6.44859 14.3061 6.65366C14.3666 6.83584 14.4399 6.89026 14.6629 6.91874C15.1855 6.98549 15.227 7.68052 14.7168 7.81961C14.6384 7.84096 14.2173 7.85389 13.5997 7.85389C12.982 7.85389 12.561 7.84096 12.4825 7.81961C11.9723 7.68052 12.0139 6.98549 12.5364 6.91874C12.7615 6.88998 12.8276 6.8387 12.9017 6.63541C13.0608 6.1991 13.4381 6.02001 13.8725 6.17448ZM11.8246 6.66663C11.8321 6.67412 11.8087 6.71786 11.7726 6.76378C11.7052 6.8495 11.208 6.89715 11.208 6.81792C11.208 6.67948 11.7134 6.55545 11.8246 6.66663ZM11.586 7.48448C11.5866 7.74988 11.8096 8.09537 12.0692 8.23308C12.2444 8.32605 12.2459 8.3339 12.2455 9.17596C12.245 10.3174 12.1454 11.0487 11.803 12.4262L11.5857 13.3006V14.3537V15.4068H9.06814H6.55063V14.8404C6.55063 14.3213 6.54551 14.2688 6.48944 14.2127C6.41384 14.1371 6.41839 14.1379 5.32333 14.021C4.83006 13.9683 4.39463 13.9185 4.35568 13.9102L4.28487 13.8951V12.9359V11.9767L4.51302 11.9757C5.07811 11.9733 5.4277 11.8664 5.68883 11.6162C6.01164 11.3069 5.67888 10.9402 5.32937 11.22C5.13623 11.3746 4.99154 11.4186 4.62314 11.4349L4.28487 11.4498V10.9138V10.3778L3.8465 9.9893C3.60542 9.77561 3.40716 9.59057 3.40595 9.57812C3.40475 9.56563 3.6515 9.20911 3.95433 8.78581C4.55434 7.94717 4.54955 7.95559 4.58193 7.68116C4.59418 7.57732 4.61178 7.46051 4.62105 7.42156L4.63784 7.35075H8.11177H11.5857L11.586 7.48448ZM5.05136 8.4827C4.69754 8.62904 5.01056 9.25507 5.56824 9.51645C6.23149 9.82729 7.30588 9.34385 7.30588 8.73457C7.30588 8.4485 6.94852 8.35735 6.81785 8.61003C6.53911 9.14905 5.8247 9.25056 5.51897 8.79455C5.32015 8.49805 5.20305 8.41994 5.05136 8.4827Z" fill="white"/>
</g>
<defs>
<clipPath id="clip0_311:503">
<rect width="16.1121" height="16.1121" fill="white" transform="translate(0.508606 0.301727)"/>
</clipPath>
</defs>
</svg>
