<svg width="39" height="38" viewBox="0 0 39 38" fill="none" xmlns="http://www.w3.org/2000/svg">
<g clip-path="url(#clip0_315:12)">
<path d="M30.1482 27.2099V7.33334C30.1482 5.77161 28.8704 4.49384 27.3087 4.49384H7.43216C5.87043 4.49384 4.59265 5.77161 4.59265 7.33334V27.2099C4.59265 28.7716 5.87043 30.0494 7.43216 30.0494H27.3087C28.8704 30.0494 30.1482 28.7716 30.1482 27.2099ZM12.4013 19.4012L15.9507 23.6747L20.9198 17.2716L27.3087 25.7901H7.43216L12.4013 19.4012Z" fill="#FF76FE"/>
</g>
<g clip-path="url(#clip1_315:12)">
<path d="M34.4074 30.0494V10.1728C34.4074 8.61112 33.1296 7.33334 31.5679 7.33334H11.6913C10.1296 7.33334 8.85181 8.61112 8.85181 10.1728V30.0494C8.85181 31.6111 10.1296 32.8889 11.6913 32.8889H31.5679C33.1296 32.8889 34.4074 31.6111 34.4074 30.0494ZM16.6604 22.2408L20.2098 26.5142L25.179 20.1111L31.5679 28.6296H11.6913L16.6604 22.2408Z" fill="#FF76FE" fill-opacity="0.87"/>
</g>
<defs>
<clipPath id="clip0_315:12">
<rect width="34.0741" height="34.0741" fill="white" transform="translate(0.333374 0.234558)"/>
</clipPath>
<clipPath id="clip1_315:12">
<rect width="34.0741" height="34.0741" fill="white" transform="translate(4.59265 3.07407)"/>
</clipPath>
</defs>
</svg>
